<svg xmlns="http://www.w3.org/2000/svg" width="21" height="21" viewBox="0 0 21 21"><defs><style>.a,.b{fill:none;}.a,.c{stroke:rgba(0,0,0,0);}.c{fill:#fff;}</style></defs><g transform="translate(0.5 0.5)"><rect class="a" width="20" height="20"/><g transform="translate(20) rotate(90)"><rect class="b" width="20" height="20"/><g transform="translate(17.5 11.25) rotate(180)"><path class="c" d="M0,1.25A1.25,1.25,0,1,0,1.25,0,1.25,1.25,0,0,0,0,1.25Z"/><path class="c" d="M0,1.25A1.25,1.25,0,1,0,1.25,0,1.25,1.25,0,0,0,0,1.25Z" transform="translate(6.25)"/><path class="c" d="M0,1.25A1.25,1.25,0,1,0,1.25,0,1.25,1.25,0,0,0,0,1.25Z" transform="translate(12.5)"/></g></g></g></svg>
