<?xml version="1.0" standalone="no"?><!DOCTYPE svg PUBLIC "-//W3C//DTD SVG 1.1//EN" "http://www.w3.org/Graphics/SVG/1.1/DTD/svg11.dtd"><svg t="1670899143924" class="icon" viewBox="0 0 1024 1024" version="1.1" xmlns="http://www.w3.org/2000/svg" p-id="9698" xmlns:xlink="http://www.w3.org/1999/xlink" width="200" height="200"><path d="M953.3 806.2c0 101.9-82.9 184.8-184.8 184.8H223.9C122 991 39.1 908.1 39.1 806.2V217.8C39.1 115.8 122 33 223.9 33h345.4V3.9H223.9C106 3.9 10 99.9 10 217.8v588.4c0 118 96 214 213.9 214h544.6c117.9 0 214-96 214-214V456.1h-29.2v350.1z" fill="#03315e" p-id="9699"></path><path d="M305.4 713.2L536 688.8l478.9-478.9L804.3 4.4l-479.1 474-19.8 234.8z m668.2-503.3l-59.7 59.7-169.2-169.4 59.7-59.7 169.2 169.4zM353.4 491.5l370.7-370.6 169.2 169.2-370.7 370.8-185.2 19.5 16-188.9z" fill="#03315e" p-id="9700"></path><path d="M579.1 451.2l169.6-169.6 20.6 20.6-169.6 169.7-20.6-20.7z m-82.8 85c-8.1 0-14.7 6.6-14.7 14.7s6.6 14.7 14.7 14.7S511 559 511 550.9c-0.1-8.1-6.6-14.7-14.7-14.7z" fill="#03315e" p-id="9701"></path></svg>